<svg width="16" height="16" viewBox="0 0 16 16" fill="none" xmlns="http://www.w3.org/2000/svg">
<g clip-path="url(#clip0_2277_47)">
<path d="M4.33333 1.33331H11.6667C11.7702 1.33331 11.8722 1.35741 11.9648 1.40369C12.0574 1.44998 12.1379 1.51718 12.2 1.59998L14 3.99998V14C14 14.1768 13.9298 14.3464 13.8047 14.4714C13.6797 14.5964 13.5101 14.6666 13.3333 14.6666H2.66667C2.48986 14.6666 2.32029 14.5964 2.19526 14.4714C2.07024 14.3464 2 14.1768 2 14V3.99998L3.8 1.59998C3.8621 1.51718 3.94262 1.44998 4.03519 1.40369C4.12776 1.35741 4.22984 1.33331 4.33333 1.33331ZM12.6667 5.33331H3.33333V13.3333H12.6667V5.33331ZM12.3333 3.99998L11.3333 2.66665H4.66667L3.66667 3.99998H12.3333ZM6 6.66665V7.99998C6 8.53041 6.21071 9.03912 6.58579 9.41419C6.96086 9.78927 7.46957 9.99998 8 9.99998C8.53043 9.99998 9.03914 9.78927 9.41421 9.41419C9.78929 9.03912 10 8.53041 10 7.99998V6.66665H11.3333V7.99998C11.3333 8.88403 10.9821 9.73188 10.357 10.357C9.7319 10.9821 8.88406 11.3333 8 11.3333C7.11595 11.3333 6.2681 10.9821 5.64298 10.357C5.01786 9.73188 4.66667 8.88403 4.66667 7.99998V6.66665H6Z" fill="currentColor"/>
</g>
<defs>
<clipPath id="clip0_2277_47">
<rect width="16" height="16" fill="white"/>
</clipPath>
</defs>
</svg>
