<svg width="16" height="16" viewBox="0 0 16 16" fill="none" xmlns="http://www.w3.org/2000/svg">
<g clip-path="url(#clip0_2277_32)">
<path d="M2.22671 11.3333C1.94489 10.846 1.72582 10.325 1.57471 9.78267C1.90358 9.6154 2.17977 9.36042 2.37273 9.04593C2.56568 8.73145 2.66788 8.36971 2.66802 8.00075C2.66816 7.63178 2.56623 7.26997 2.37351 6.95534C2.18079 6.64071 1.90479 6.38552 1.57604 6.218C1.8774 5.12833 2.45119 4.13331 3.24337 3.32667C3.55277 3.52782 3.91179 3.63944 4.28069 3.64919C4.6496 3.65894 5.01401 3.56642 5.33359 3.38189C5.65318 3.19736 5.91548 2.928 6.09146 2.60363C6.26744 2.27926 6.35024 1.91252 6.33071 1.544C7.42545 1.26109 8.57419 1.26154 9.66871 1.54534C9.64934 1.91385 9.73231 2.28053 9.90843 2.60481C10.0845 2.92909 10.3469 3.19832 10.6666 3.38271C10.9862 3.5671 11.3507 3.65946 11.7196 3.64957C12.0884 3.63968 12.4474 3.52793 12.7567 3.32667C13.1427 3.72 13.4854 4.16734 13.7734 4.66667C14.062 5.166 14.278 5.68667 14.4254 6.21734C14.0965 6.3846 13.8203 6.63959 13.6274 6.95407C13.4344 7.26856 13.3322 7.6303 13.3321 7.99926C13.3319 8.36823 13.4339 8.73004 13.6266 9.04467C13.8193 9.3593 14.0953 9.61449 14.424 9.782C14.1227 10.8717 13.5489 11.8667 12.7567 12.6733C12.4473 12.4722 12.0883 12.3606 11.7194 12.3508C11.3505 12.3411 10.9861 12.4336 10.6665 12.6181C10.3469 12.8026 10.0846 13.072 9.90862 13.3964C9.73264 13.7207 9.64984 14.0875 9.66937 14.456C8.57463 14.7389 7.42589 14.7385 6.33137 14.4547C6.35074 14.0862 6.26777 13.7195 6.09165 13.3952C5.91554 13.0709 5.65314 12.8017 5.33349 12.6173C5.01384 12.4329 4.64941 12.3405 4.28052 12.3504C3.91164 12.3603 3.55268 12.4721 3.24337 12.6733C2.84937 12.2713 2.50777 11.8211 2.22671 11.3333ZM6.00004 11.464C6.71046 11.8738 7.2446 12.5313 7.50004 13.3107C7.83271 13.342 8.16671 13.3427 8.49937 13.3113C8.75497 12.5319 9.28937 11.8743 10 11.4647C10.7102 11.0538 11.5471 10.9197 12.35 11.088C12.5434 10.816 12.71 10.526 12.8487 10.2227C12.3017 9.61163 11.9995 8.82014 12 8C12 7.16 12.3134 6.37534 12.8487 5.77734C12.7091 5.4741 12.5417 5.18443 12.3487 4.912C11.5462 5.08021 10.7099 4.94632 10 4.536C9.28962 4.12625 8.75548 3.46866 8.50004 2.68934C8.16737 2.658 7.83337 2.65734 7.50071 2.68867C7.24511 3.4681 6.71071 4.12571 6.00004 4.53534C5.2899 4.94621 4.45303 5.08035 3.65004 4.912C3.45708 5.18419 3.29013 5.47391 3.15137 5.77734C3.69842 6.38838 4.00063 7.17986 4.00004 8C4.00004 8.84 3.68671 9.62467 3.15137 10.2227C3.29102 10.5259 3.4584 10.8156 3.65137 11.088C4.45385 10.9198 5.29018 11.0537 6.00004 11.464ZM8.00004 10C7.46961 10 6.9609 9.78929 6.58583 9.41422C6.21075 9.03914 6.00004 8.53044 6.00004 8C6.00004 7.46957 6.21075 6.96086 6.58583 6.58579C6.9609 6.21072 7.46961 6 8.00004 6C8.53047 6 9.03918 6.21072 9.41425 6.58579C9.78933 6.96086 10 7.46957 10 8C10 8.53044 9.78933 9.03914 9.41425 9.41422C9.03918 9.78929 8.53047 10 8.00004 10ZM8.00004 8.66667C8.17685 8.66667 8.34642 8.59643 8.47144 8.47141C8.59647 8.34638 8.66671 8.17682 8.66671 8C8.66671 7.82319 8.59647 7.65362 8.47144 7.5286C8.34642 7.40358 8.17685 7.33334 8.00004 7.33334C7.82323 7.33334 7.65366 7.40358 7.52864 7.5286C7.40361 7.65362 7.33337 7.82319 7.33337 8C7.33337 8.17682 7.40361 8.34638 7.52864 8.47141C7.65366 8.59643 7.82323 8.66667 8.00004 8.66667Z" fill="currentColor"/>
</g>
<defs>
<clipPath id="clip0_2277_32">
<rect width="16" height="16" fill="white"/>
</clipPath>
</defs>
</svg>
