<svg width="16" height="16" viewBox="0 0 16 16" fill="none" xmlns="http://www.w3.org/2000/svg">
<g clip-path="url(#clip0_2277_42)">
<path d="M8.00059 3.01932C9.56659 1.61332 11.9866 1.65999 13.4953 3.17132C15.0033 4.68332 15.0553 7.09132 13.6526 8.66199L7.99926 14.3233L2.34726 8.66199C0.944589 7.09132 0.997256 4.67932 2.50459 3.17132C4.01459 1.66199 6.42992 1.61132 8.00059 3.01932ZM12.5513 4.11332C11.5513 3.11199 9.93792 3.07132 8.89126 4.01132L8.00126 4.80999L7.11059 4.01199C6.06059 3.07065 4.45059 3.11199 3.44792 4.11465C2.45459 5.10799 2.40459 6.69799 3.31992 7.74865L7.99992 12.436L12.6799 7.74932C13.5959 6.69799 13.5459 5.10999 12.5513 4.11332Z" fill="currentColor"/>
</g>
<defs>
<clipPath id="clip0_2277_42">
<rect width="16" height="16" fill="white"/>
</clipPath>
</defs>
</svg>
