<svg width="16" height="16" viewBox="0 0 16 16" fill="none" xmlns="http://www.w3.org/2000/svg">
<g clip-path="url(#clip0_2277_52)">
<path d="M14 1.33331V14.6666H12.6667V9.99998H10V5.33331C10 4.27245 10.4214 3.25503 11.1716 2.50489C11.9217 1.75474 12.9391 1.33331 14 1.33331ZM12.6667 3.01998C12.1133 3.33331 11.3333 4.11331 11.3333 5.33331V8.66665H12.6667V3.01998ZM6 9.26665V14.6666H4.66667V9.26665C3.91387 9.11273 3.23733 8.70356 2.75143 8.10834C2.26553 7.51311 2.00009 6.76835 2 5.99998V1.99998H3.33333V6.66665H4.66667V1.99998H6V6.66665H7.33333V1.99998H8.66667V5.99998C8.66657 6.76835 8.40114 7.51311 7.91524 8.10834C7.42934 8.70356 6.75279 9.11273 6 9.26665Z" fill="currentColor"/>
</g>
<defs>
<clipPath id="clip0_2277_52">
<rect width="16" height="16" fill="white"/>
</clipPath>
</defs>
</svg>
