<svg width="48" height="48" viewBox="0 0 48 48" fill="none" xmlns="http://www.w3.org/2000/svg">
<rect width="48" height="48" rx="5" fill="white"/>
<g clip-path="url(#clip0_2302_58)">
<path d="M14 16C14 15.7348 14.1054 15.4804 14.2929 15.2929C14.4804 15.1054 14.7348 15 15 15H33C33.2652 15 33.5196 15.1054 33.7071 15.2929C33.8946 15.4804 34 15.7348 34 16V21.5C33.337 21.5 32.7011 21.7634 32.2322 22.2322C31.7634 22.7011 31.5 23.337 31.5 24C31.5 24.663 31.7634 25.2989 32.2322 25.7678C32.7011 26.2366 33.337 26.5 34 26.5V32C34 32.2652 33.8946 32.5196 33.7071 32.7071C33.5196 32.8946 33.2652 33 33 33H15C14.7348 33 14.4804 32.8946 14.2929 32.7071C14.1054 32.5196 14 32.2652 14 32V16ZM20.085 31C20.1881 30.707 20.3796 30.4532 20.633 30.2737C20.8865 30.0942 21.1894 29.9978 21.5 29.9978C21.8106 29.9978 22.1135 30.0942 22.367 30.2737C22.6204 30.4532 22.8119 30.707 22.915 31H32V28.032C31.2488 27.6597 30.6165 27.085 30.1745 26.3725C29.7325 25.6601 29.4982 24.8384 29.4982 24C29.4982 23.1616 29.7325 22.3399 30.1745 21.6275C30.6165 20.9151 31.2488 20.3403 32 19.968V17H22.915C22.8119 17.293 22.6204 17.5468 22.367 17.7263C22.1135 17.9058 21.8106 18.0022 21.5 18.0022C21.1894 18.0022 20.8865 17.9058 20.633 17.7263C20.3796 17.5468 20.1881 17.293 20.085 17H16V31H20.085ZM21.5 23C21.1022 23 20.7206 22.842 20.4393 22.5607C20.158 22.2794 20 21.8978 20 21.5C20 21.1022 20.158 20.7206 20.4393 20.4393C20.7206 20.158 21.1022 20 21.5 20C21.8978 20 22.2794 20.158 22.5607 20.4393C22.842 20.7206 23 21.1022 23 21.5C23 21.8978 22.842 22.2794 22.5607 22.5607C22.2794 22.842 21.8978 23 21.5 23ZM21.5 28C21.1022 28 20.7206 27.842 20.4393 27.5607C20.158 27.2794 20 26.8978 20 26.5C20 26.1022 20.158 25.7206 20.4393 25.4393C20.7206 25.158 21.1022 25 21.5 25C21.8978 25 22.2794 25.158 22.5607 25.4393C22.842 25.7206 23 26.1022 23 26.5C23 26.8978 22.842 27.2794 22.5607 27.5607C22.2794 27.842 21.8978 28 21.5 28Z" fill="currentColor"/>
</g>
<defs>
<clipPath id="clip0_2302_58">
<rect width="24" height="24" fill="white" transform="translate(12 12)"/>
</clipPath>
</defs>
</svg>
