<svg width="24" height="24" viewBox="0 0 24 24" fill="none" xmlns="http://www.w3.org/2000/svg">
<rect width="24" height="24" fill="#E5E5E5"/>
<g id="Meus Endere&#195;&#167;os" clip-path="url(#clip0_403_14)">
<rect width="428" height="926" transform="translate(-380 -156)" fill="white"/>
<g id="endere&#195;&#167;o 01">
<g id="btn - op&#195;&#167;&#195;&#181;es" clip-path="url(#clip1_403_14)">
<path id="Vector" d="M12 3C10.9 3 10 3.9 10 5C10 6.1 10.9 7 12 7C13.1 7 14 6.1 14 5C14 3.9 13.1 3 12 3ZM12 17C10.9 17 10 17.9 10 19C10 20.1 10.9 21 12 21C13.1 21 14 20.1 14 19C14 17.9 13.1 17 12 17ZM12 10C10.9 10 10 10.9 10 12C10 13.1 10.9 14 12 14C13.1 14 14 13.1 14 12C14 10.9 13.1 10 12 10Z" fill="currentColor"/>
</g>
</g>
</g>
<defs>
<clipPath id="clip0_403_14">
<rect width="428" height="926" fill="white" transform="translate(-380 -156)"/>
</clipPath>
<clipPath id="clip1_403_14">
<rect width="24" height="24" fill="white"/>
</clipPath>
</defs>
</svg>
