<svg width="109" height="109" viewBox="0 0 109 109" fill="none" xmlns="http://www.w3.org/2000/svg">
<g id="icone - enviado" clip-path="url(#clip0_413_394)">
<path id="Vector" d="M99.9167 90.8651C99.9084 92.0579 99.4312 93.1995 98.5882 94.0433C97.7452 94.8871 96.6041 95.3655 95.4113 95.375H13.5887C12.3934 95.3738 11.2474 94.8981 10.4026 94.0525C9.55786 93.2068 9.08333 92.0604 9.08333 90.8651V86.2917H90.8333V33.1542L54.5 65.8542L9.08333 24.9792V18.1667C9.08333 16.9621 9.56183 15.807 10.4136 14.9552C11.2653 14.1035 12.4205 13.625 13.625 13.625H95.375C96.5795 13.625 97.7347 14.1035 98.5865 14.9552C99.4382 15.807 99.9167 16.9621 99.9167 18.1667V90.8651ZM20.1378 22.7083L54.5 53.6371L88.8623 22.7083H20.1378ZM0 68.125H36.3333V77.2083H0V68.125ZM0 45.4167H22.7083V54.5H0V45.4167Z" fill="currentColor"/>
</g>
<defs>
<clipPath id="clip0_413_394">
<rect width="109" height="109" fill="currentColor"/>
</clipPath>
</defs>
</svg>
